PathFileType	4	(X/Y/Z)	7_2_73_p1_0-285_filt_butterworth.trc
DataRate	CameraRate	NumFrames	NumMarkers	Units	OrigDataRate	OrigDataStartFrame	OrigNumFrames
57.0	57.0	5	27	m	57.0	0	285
Frame#	Time	RHip			RKnee			RAnkle			RBigToe			RSmallToe			RHeel			LHip			LKnee			LAnkle			LBigToe			LSmallToe			LHeel			Neck			Head			Nose			RShoulder			RElbow			RWrist			RThumb			RIndex			RPinky			LShoulder			LElbow			LWrist			LThumb			LIndex			LPinky			
		X1	Y1	Z1	X2	Y2	Z2	X3	Y3	Z3	X4	Y4	Z4	X5	Y5	Z5	X6	Y6	Z6	X7	Y7	Z7	X8	Y8	Z8	X9	Y9	Z9	X10	Y10	Z10	X11	Y11	Z11	X12	Y12	Z12	X13	Y13	Z13	X14	Y14	Z14	X15	Y15	Z15	X16	Y16	Z16	X17	Y17	Z17	X18	Y18	Z18	X19	Y19	Z19	X20	Y20	Z20	X21	Y21	Z21	X22	Y22	Z22	X23	Y23	Z23	X24	Y24	Z24	X25	Y25	Z25	X26	Y26	Z26	X27	Y27	Z27	
0	0.0	0.28465684200262525	0.28273658686084463	1.184534118979363	0.27575940418017497	0.2704811389540455	1.5943994549541272	0.26024351737779416	0.26166631336922397	2.0248398213572503	0.26045052753972986	0.09358965860449493	2.008968835773472	0.31645904817267784	0.10074925749688829	1.9899597039628891	0.23998866427150226	0.29130588671353175	2.0681839465527974	0.06201317878259209	0.29468458984257634	1.2055521435653942	0.0838012369072163	0.2778809195755957	1.5991571166044174	0.10076815527618428	0.24155330890864027	2.002019358811947	0.10908777080416412	0.08415034755979077	1.9998201695766582	0.057128381289895655	0.11223425399931457	1.9900422611451192	0.11136059185855415	0.28273707697943884	2.0582399091141563	0.1780126968682653	0.3391611546306747	0.6353588545696376	0.18080549947118124	0.3330655965360455	0.3856576956329812	0.16289981866794961	0.24145208903868298	0.4887267126982191	0.3370807958339821	0.3273866633973396	0.7212548781952393	0.37258516215999316	0.2191790632271667	0.9465843730909654	0.23017383596618557	0.1488272289877872	1.1270551520450218	0.16232859705467012	0.1244906259295894	1.2046710638968123	0.14863790581613273	0.14612196722463944	1.2210226259900525	0.15447184686316048	0.13526853378395434	1.2238939395129673	0.01534118684424406	0.31803668795266127	0.6998887614326224	-0.015634625185324807	0.2503984938023418	0.9517861197588635	0.09449600630516412	0.13622907609270973	1.1187818060224073	0.20573341844217216	0.12825426371847135	1.1745784975871025	0.20704499933219736	0.12325904971135193	1.2008009686072474	0.15537571059097147	0.12406396456997879	1.2236116814918467
1	0.0175438596491228	0.28817513231901287	0.27871224485007157	1.1768662656925237	0.27767824651802325	0.27113221358830486	1.5970193991628157	0.26042656975171324	0.2614390689958036	2.024628838058099	0.2603188727648599	0.09353047907735235	2.0087764115942446	0.3133800478170814	0.10863316039848687	1.9933758287570902	0.24300184298198313	0.29929309108270485	2.0776866186401026	0.0621747837791584	0.2947955387821499	1.2041969475029901	0.08381793160285284	0.27780216969003174	1.5993615767206517	0.09885065195014774	0.2472040394367639	2.004166226541021	0.10977359798413591	0.08789592007089317	2.003103099899645	0.05700901829290862	0.11227006703909694	1.9902214352365648	0.11317022527527958	0.2904483726252696	2.061695397174273	0.17791432523024137	0.33951899246640527	0.6343053953549687	0.18078163952543597	0.3330248837745552	0.3857706264906312	0.1639384084125665	0.24193615336986746	0.4888637716504141	0.3370275591493734	0.3274496397170388	0.7211445208177895	0.3739447209191792	0.21512008417456122	0.942434950441638	0.23258861156830699	0.14722326143815623	1.124138616321613	0.1566065976126143	0.13189534127651126	1.2090079250126338	0.14670537306590992	0.14949426191145349	1.225702286071618	0.15441741530130632	0.13488207015983156	1.2283859287876027	0.015374233639992997	0.318010279359306	0.6999557162694351	-0.015552961426456707	0.25044205944286213	0.9518516666368982	0.09597655381641212	0.132817004286729	1.1196165388680668	0.20572091160632322	0.12892793152218843	1.1791336482622812	0.2041388099944273	0.12867997291539768	1.2071324673462307	0.15524311046375022	0.12493108846704828	1.224776887535288
2	0.0350877192982456	0.2903746040587381	0.2776207017624588	1.1717454949470527	0.27876420587746903	0.2715008005540077	1.598513273050829	0.26008411765088374	0.26282843809649226	2.025716315303675	0.2602322143427412	0.0935135467675443	2.0087373342213275	0.31160991733425936	0.11318848687486541	1.9953715303572952	0.24478007901503307	0.3040354628972874	2.083392680044967	0.06228152192641409	0.2946177032428161	1.203967746947947	0.08381893789921652	0.2777487523125647	1.5994331361867933	0.09702776364658822	0.25240199638550065	2.006672003578853	0.1103213061472747	0.09058668146895626	2.005398603695868	0.056879666168956636	0.11225685808558586	1.9903004165283915	0.11417165278302965	0.2948086073574525	2.0636221316417256	0.17783172197864688	0.3398422563420128	0.6332303305988578	0.18076941818857384	0.3330003362038975	0.3858346440335252	0.16434494415816128	0.2421337531246005	0.48889821312085535	0.33699958697938315	0.3274971166827105	0.7210704097833461	0.3749219520785634	0.21205181644465515	0.9397482105377557	0.23406308115795912	0.14318397768619287	1.1212376308584986	0.15214255241544145	0.13647404410041675	1.211504380633039	0.14431576303586	0.15213683752520976	1.2281260213356906	0.15437586473264164	0.134412702605818	1.2307755575473602	0.015388244466298731	0.31796871690706624	0.7000347479027008	-0.015484640510852202	0.2504472071037538	0.9518750069569561	0.09657938821005085	0.1301374028342416	1.1198358410114144	0.20521502830291044	0.12910370401360496	1.180927875422621	0.20162169338762853	0.13159185005747195	1.2106036862942025	0.15512487379853623	0.12525661682859107	1.2255460579728445
3	0.0526315789473684	0.2913476906483471	0.27863119012587156	1.1706862553370487	0.2790010156462994	0.2716027652491983	1.5988990888102714	0.25891165583369813	0.2668970790378101	2.0289338949081026	0.26016471181593503	0.09348904415758369	2.008804860685829	0.31119053735695473	0.11427217826910491	1.9958756775079642	0.24525922090552946	0.3053746413746015	2.085153764757802	0.06234933004455015	0.29413061023244746	1.204815173015567	0.08381925927549597	0.2777164606382715	1.599432872038907	0.09585197185453663	0.25555426731847	2.009130026129005	0.11081323386474307	0.09266814210008244	2.0071067337288824	0.056852991470092276	0.11225667098098821	1.9903546508780194	0.11434145810890022	0.295578449125127	2.064992617986783	0.17778498115125865	0.34005010282589354	0.6324344924691506	0.18077362094674007	0.33299832475490865	0.3858366345076665	0.16392436895655724	0.24193493593939658	0.48882027450483595	0.3369991793150166	0.3275306514595956	0.7210216230715771	0.3756567700191078	0.20943425274322136	0.9383041659932863	0.2345066028605792	0.13868375008107775	1.1193440710673157	0.14938152080234582	0.137818050575733	1.2115590041568474	0.14126397805341726	0.1537516581535543	1.228672242412198	0.15444087081930344	0.13380984002127852	1.231761566726708	0.01538785074078212	0.3179238274531248	0.7001019721821592	-0.015449659890199157	0.25044418611734887	0.9518999551502678	0.0965934471816562	0.12835795863363486	1.1194298169980128	0.2039028072702536	0.12842471657632587	1.1800286013906742	0.1997146673067495	0.13194352322433126	1.211182348867586	0.15465983217380855	0.12421963016317611	1.224852114740942
4	0.0701754385964912	0.2920057121594821	0.27970273227975895	1.1731302616309367	0.27888488049568305	0.271611119503118	1.598888777976611	0.2572978626133137	0.27249216885416816	2.033352071472172	0.26008124352281703	0.09341269609569113	2.00886255855117	0.31135298670458617	0.11379833941976092	1.9957132571619518	0.2451521692817719	0.3052072701743372	2.0852119835444016	0.06239929659961785	0.29358536094934473	1.205825183787604	0.08383868125783499	0.27769199068759404	1.5994744368700176	0.09551069587041407	0.25625114613375477	2.0109870626409316	0.11123395411844783	0.09431279507265429	2.0084661415902296	0.05728484746105064	0.11246890009134826	1.9905434684077457	0.1140776539345026	0.29477612731348657	2.067253280998934	0.17777498425677807	0.34012178252188546	0.6320868875378043	0.18078882142304664	0.33300749596001655	0.3857706903534973	0.1632290510177299	0.24156286387487402	0.4887812484526638	0.337010628667293	0.32755373853573755	0.7209693170652844	0.3761544196367197	0.2075265273794554	0.9375702459717	0.23444490411340332	0.13625391488235697	1.1189027612266642	0.14740666361383525	0.1367556546258088	1.2096768287527306	0.13771923856171991	0.15420201078621681	1.2295410784061913	0.15466919043183752	0.13321911585543492	1.2329551278682243	0.01538993401345487	0.3178985994673259	0.7001133657294804	-0.01545053446818296	0.2504692785280645	0.9519636985557203	0.09725040975217739	0.12595837713651453	1.1181863822631044	0.2019844752000804	0.12662804324930055	1.178409267080267	0.19855295415940358	0.13126697901102793	1.2107293952883422	0.15343273120602802	0.12087137196988723	1.222141825704119
